<svg width="50" height="50" viewBox="0 0 50 50" fill="none" xmlns="http://www.w3.org/2000/svg">
<path d="M31.25 47.3958H18.75C7.43749 47.3958 2.60416 42.5625 2.60416 31.25V18.75C2.60416 7.43746 7.43749 2.60413 18.75 2.60413H31.25C42.5625 2.60413 47.3958 7.43746 47.3958 18.75V31.25C47.3958 42.5625 42.5625 47.3958 31.25 47.3958ZM18.75 5.72913C9.14582 5.72913 5.72916 9.14579 5.72916 18.75V31.25C5.72916 40.8541 9.14582 44.2708 18.75 44.2708H31.25C40.8542 44.2708 44.2708 40.8541 44.2708 31.25V18.75C44.2708 9.14579 40.8542 5.72913 31.25 5.72913H18.75Z" fill="#292D32"/>
<path d="M22.375 33.9166C21.9792 33.9166 21.5833 33.7708 21.2708 33.4583C20.6667 32.8541 20.6667 31.8541 21.2708 31.25L27.5208 25L21.2708 18.75C20.6667 18.1458 20.6667 17.1458 21.2708 16.5416C21.875 15.9375 22.875 15.9375 23.4792 16.5416L30.8333 23.8958C31.4375 24.5 31.4375 25.5 30.8333 26.1041L23.4792 33.4583C23.1667 33.7708 22.7708 33.9166 22.375 33.9166Z" fill="#292D32"/>
</svg>
