<svg width="26" height="26" viewBox="0 0 26 26" fill="none" xmlns="http://www.w3.org/2000/svg">
<path d="M11.1041 24.1042C6.02331 24.1042 1.89581 19.9767 1.89581 14.8958C1.89581 9.815 6.02331 5.6875 11.1041 5.6875C16.185 5.6875 20.3125 9.815 20.3125 14.8958C20.3125 19.9767 16.185 24.1042 11.1041 24.1042ZM11.1041 7.3125C6.92248 7.3125 3.52081 10.7142 3.52081 14.8958C3.52081 19.0775 6.92248 22.4792 11.1041 22.4792C15.2858 22.4792 18.6875 19.0775 18.6875 14.8958C18.6875 10.7142 15.2858 7.3125 11.1041 7.3125Z" fill="#292D32"/>
<path d="M17.3334 9.47917C17.1275 9.47917 16.9217 9.40334 16.7592 9.24084C16.445 8.92667 16.445 8.40667 16.7592 8.0925L22.7175 2.13417C23.0317 1.82 23.5517 1.82 23.8659 2.13417C24.18 2.44834 24.18 2.96834 23.8659 3.2825L17.9075 9.24084C17.745 9.40334 17.5392 9.47917 17.3334 9.47917Z" fill="#292D32"/>
<path d="M23.2917 10.5625C22.8475 10.5625 22.4792 10.1942 22.4792 9.75V3.52084H16.25C15.8058 3.52084 15.4375 3.1525 15.4375 2.70834C15.4375 2.26417 15.8058 1.89584 16.25 1.89584H23.2917C23.7358 1.89584 24.1042 2.26417 24.1042 2.70834V9.75C24.1042 10.1942 23.7358 10.5625 23.2917 10.5625Z" fill="#292D32"/>
</svg>
