<svg width="26" height="26" viewBox="0 0 26 26" fill="none" xmlns="http://www.w3.org/2000/svg">
<path d="M13 18.1458C8.37419 18.1458 4.60419 14.3758 4.60419 9.75C4.60419 5.12416 8.37419 1.35416 13 1.35416C17.6259 1.35416 21.3959 5.12416 21.3959 9.75C21.3959 14.3758 17.6259 18.1458 13 18.1458ZM13 2.97916C9.26252 2.97916 6.22919 6.0125 6.22919 9.75C6.22919 13.4875 9.26252 16.5208 13 16.5208C16.7375 16.5208 19.7709 13.4875 19.7709 9.75C19.7709 6.0125 16.7375 2.97916 13 2.97916Z" fill="#292D32"/>
<path d="M13 24.6458C12.5558 24.6458 12.1875 24.2775 12.1875 23.8333V17.3333C12.1875 16.8892 12.5558 16.5208 13 16.5208C13.4442 16.5208 13.8125 16.8892 13.8125 17.3333V23.8333C13.8125 24.2775 13.4442 24.6458 13 24.6458Z" fill="#292D32"/>
<path d="M16.25 21.3958H9.75C9.30583 21.3958 8.9375 21.0275 8.9375 20.5833C8.9375 20.1392 9.30583 19.7708 9.75 19.7708H16.25C16.6942 19.7708 17.0625 20.1392 17.0625 20.5833C17.0625 21.0275 16.6942 21.3958 16.25 21.3958Z" fill="#292D32"/>
</svg>
