<svg width="26" height="26" viewBox="0 0 26 26" fill="none" xmlns="http://www.w3.org/2000/svg">
<g opacity="0.5">
<path d="M19.5 11.6458C19.0558 11.6458 18.6875 11.2775 18.6875 10.8333V8.66667C18.6875 5.25417 17.7233 2.97917 13 2.97917C8.27667 2.97917 7.3125 5.25417 7.3125 8.66667V10.8333C7.3125 11.2775 6.94417 11.6458 6.5 11.6458C6.05583 11.6458 5.6875 11.2775 5.6875 10.8333V8.66667C5.6875 5.525 6.44583 1.35417 13 1.35417C19.5542 1.35417 20.3125 5.525 20.3125 8.66667V10.8333C20.3125 11.2775 19.9442 11.6458 19.5 11.6458Z" fill="#292D32"/>
<path d="M13 20.8542C11.0609 20.8542 9.47919 19.2725 9.47919 17.3333C9.47919 15.3942 11.0609 13.8125 13 13.8125C14.9392 13.8125 16.5209 15.3942 16.5209 17.3333C16.5209 19.2725 14.9392 20.8542 13 20.8542ZM13 15.4375C11.96 15.4375 11.1042 16.2933 11.1042 17.3333C11.1042 18.3733 11.96 19.2292 13 19.2292C14.04 19.2292 14.8959 18.3733 14.8959 17.3333C14.8959 16.2933 14.04 15.4375 13 15.4375Z" fill="#292D32"/>
<path d="M18.4167 24.6458H7.58335C2.80585 24.6458 1.35419 23.1942 1.35419 18.4167V16.25C1.35419 11.4725 2.80585 10.0208 7.58335 10.0208H18.4167C23.1942 10.0208 24.6459 11.4725 24.6459 16.25V18.4167C24.6459 23.1942 23.1942 24.6458 18.4167 24.6458ZM7.58335 11.6458C3.70502 11.6458 2.97919 12.3825 2.97919 16.25V18.4167C2.97919 22.2842 3.70502 23.0208 7.58335 23.0208H18.4167C22.295 23.0208 23.0209 22.2842 23.0209 18.4167V16.25C23.0209 12.3825 22.295 11.6458 18.4167 11.6458H7.58335Z" fill="#292D32"/>
</g>
</svg>
