<svg width="30" height="30" viewBox="0 0 30 30" fill="none" xmlns="http://www.w3.org/2000/svg">
<path d="M21.25 26.5625H8.75C4.1875 26.5625 1.5625 23.9375 1.5625 19.375V10.625C1.5625 6.0625 4.1875 3.4375 8.75 3.4375H17.5C18.0125 3.4375 18.4375 3.8625 18.4375 4.375C18.4375 4.8875 18.0125 5.3125 17.5 5.3125H8.75C5.175 5.3125 3.4375 7.05 3.4375 10.625V19.375C3.4375 22.95 5.175 24.6875 8.75 24.6875H21.25C24.825 24.6875 26.5625 22.95 26.5625 19.375V13.125C26.5625 12.6125 26.9875 12.1875 27.5 12.1875C28.0125 12.1875 28.4375 12.6125 28.4375 13.125V19.375C28.4375 23.9375 25.8125 26.5625 21.25 26.5625Z" fill="white"/>
<path d="M14.9997 16.0875C13.9497 16.0875 12.8872 15.7625 12.0747 15.1L8.16222 11.975C7.76222 11.65 7.68723 11.0625 8.01223 10.6625C8.33723 10.2625 8.92471 10.1875 9.32471 10.5125L13.2372 13.6375C14.1872 14.4 15.7997 14.4 16.7497 13.6375L18.2247 12.4625C18.6247 12.1375 19.2247 12.2 19.5372 12.6125C19.8622 13.0125 19.7997 13.6125 19.3872 13.925L17.9122 15.1C17.1122 15.7625 16.0497 16.0875 14.9997 16.0875Z" fill="white"/>
<path d="M24.375 10.9375C22.1375 10.9375 20.3125 9.1125 20.3125 6.875C20.3125 4.6375 22.1375 2.8125 24.375 2.8125C26.6125 2.8125 28.4375 4.6375 28.4375 6.875C28.4375 9.1125 26.6125 10.9375 24.375 10.9375ZM24.375 4.6875C23.175 4.6875 22.1875 5.675 22.1875 6.875C22.1875 8.075 23.175 9.0625 24.375 9.0625C25.575 9.0625 26.5625 8.075 26.5625 6.875C26.5625 5.675 25.575 4.6875 24.375 4.6875Z" fill="white"/>
</svg>
