<svg width="30" height="30" viewBox="0 0 30 30" fill="none" xmlns="http://www.w3.org/2000/svg">
<path d="M11.8375 19.1C11.6 19.1 11.3625 19.0125 11.175 18.825C10.15 17.8 9.58752 16.4375 9.58752 15C9.58752 12.0125 12.0125 9.58749 15 9.58749C16.4375 9.58749 17.8 10.15 18.825 11.175C19 11.35 19.1 11.5875 19.1 11.8375C19.1 12.0875 19 12.325 18.825 12.5L12.5 18.825C12.3125 19.0125 12.075 19.1 11.8375 19.1ZM15 11.4625C13.05 11.4625 11.4625 13.05 11.4625 15C11.4625 15.625 11.625 16.225 11.925 16.75L16.75 11.925C16.225 11.625 15.625 11.4625 15 11.4625Z" fill="white"/>
<path d="M7.00005 23.1375C6.78755 23.1375 6.56255 23.0625 6.38755 22.9125C5.05005 21.775 3.85005 20.375 2.82505 18.75C1.50005 16.6875 1.50005 13.325 2.82505 11.25C5.87505 6.47501 10.3125 3.72501 15 3.72501C17.7501 3.72501 20.4626 4.67501 22.8376 6.46251C23.2501 6.77501 23.3376 7.36251 23.0251 7.77501C22.7126 8.18751 22.1251 8.27501 21.7126 7.96251C19.6626 6.41251 17.3376 5.60001 15 5.60001C10.9625 5.60001 7.10005 8.02501 4.40005 12.2625C3.46255 13.725 3.46255 16.275 4.40005 17.7375C5.33755 19.2 6.41255 20.4625 7.60005 21.4875C7.98755 21.825 8.03755 22.4125 7.70005 22.8125C7.52505 23.025 7.26255 23.1375 7.00005 23.1375Z" fill="white"/>
<path d="M15 26.275C13.3375 26.275 11.7125 25.9375 10.15 25.275C9.67496 25.075 9.44996 24.525 9.64996 24.05C9.84996 23.575 10.4 23.35 10.875 23.55C12.2 24.1125 13.5875 24.4 14.9875 24.4C19.025 24.4 22.8875 21.975 25.5875 17.7375C26.525 16.275 26.525 13.725 25.5875 12.2625C25.2 11.65 24.775 11.0625 24.325 10.5125C24 10.1125 24.0625 9.525 24.4625 9.1875C24.8625 8.8625 25.45 8.9125 25.7875 9.325C26.275 9.925 26.75 10.575 27.175 11.25C28.5 13.3125 28.5 16.675 27.175 18.75C24.125 23.525 19.6875 26.275 15 26.275Z" fill="white"/>
<path d="M15.8625 20.3375C15.425 20.3375 15.025 20.025 14.9375 19.575C14.8375 19.0625 15.175 18.575 15.6875 18.4875C17.0625 18.2375 18.2125 17.0875 18.4625 15.7125C18.5625 15.2 19.05 14.875 19.5625 14.9625C20.075 15.0625 20.4125 15.55 20.3125 16.0625C19.9125 18.225 18.1875 19.9375 16.0375 20.3375C15.975 20.325 15.925 20.3375 15.8625 20.3375Z" fill="white"/>
<path d="M2.50005 28.4375C2.26255 28.4375 2.02505 28.35 1.83755 28.1625C1.47505 27.8 1.47505 27.2 1.83755 26.8375L11.175 17.5C11.5375 17.1375 12.1375 17.1375 12.5 17.5C12.8625 17.8625 12.8625 18.4625 12.5 18.825L3.16255 28.1625C2.97505 28.35 2.73755 28.4375 2.50005 28.4375Z" fill="white"/>
<path d="M18.1625 12.775C17.925 12.775 17.6875 12.6875 17.5 12.5C17.1375 12.1375 17.1375 11.5375 17.5 11.175L26.8375 1.83749C27.2 1.47499 27.8 1.47499 28.1625 1.83749C28.525 2.19999 28.525 2.79999 28.1625 3.16249L18.825 12.5C18.6375 12.6875 18.4 12.775 18.1625 12.775Z" fill="white"/>
</svg>
