<svg width="26" height="26" viewBox="0 0 26 26" fill="none" xmlns="http://www.w3.org/2000/svg">
<g opacity="0.5">
<path d="M18.4167 23.0208H7.58335C3.62919 23.0208 1.35419 20.7458 1.35419 16.7917V9.20832C1.35419 5.25416 3.62919 2.97916 7.58335 2.97916H15.1667C15.6109 2.97916 15.9792 3.34749 15.9792 3.79166C15.9792 4.23582 15.6109 4.60416 15.1667 4.60416H7.58335C4.48502 4.60416 2.97919 6.10999 2.97919 9.20832V16.7917C2.97919 19.89 4.48502 21.3958 7.58335 21.3958H18.4167C21.515 21.3958 23.0209 19.89 23.0209 16.7917V11.375C23.0209 10.9308 23.3892 10.5625 23.8334 10.5625C24.2775 10.5625 24.6459 10.9308 24.6459 11.375V16.7917C24.6459 20.7458 22.3709 23.0208 18.4167 23.0208Z" fill="#292D32"/>
<path d="M12.9997 13.9425C12.0897 13.9425 11.1689 13.6609 10.4647 13.0867L7.0739 10.3784C6.72724 10.0967 6.66224 9.58753 6.94391 9.24087C7.22558 8.8942 7.73473 8.8292 8.0814 9.11087L11.4722 11.8192C12.2956 12.48 13.6931 12.48 14.5164 11.8192L15.7947 10.8009C16.1414 10.5192 16.6614 10.5734 16.9322 10.9309C17.2139 11.2775 17.1597 11.7975 16.8022 12.0684L15.5239 13.0867C14.8306 13.6609 13.9097 13.9425 12.9997 13.9425Z" fill="#292D32"/>
<path d="M21.125 9.47917C19.1859 9.47917 17.6042 7.8975 17.6042 5.95833C17.6042 4.01917 19.1859 2.4375 21.125 2.4375C23.0642 2.4375 24.6459 4.01917 24.6459 5.95833C24.6459 7.8975 23.0642 9.47917 21.125 9.47917ZM21.125 4.0625C20.085 4.0625 19.2292 4.91833 19.2292 5.95833C19.2292 6.99833 20.085 7.85417 21.125 7.85417C22.165 7.85417 23.0209 6.99833 23.0209 5.95833C23.0209 4.91833 22.165 4.0625 21.125 4.0625Z" fill="#292D32"/>
</g>
</svg>
