<svg width="26" height="26" viewBox="0 0 26 26" fill="none" xmlns="http://www.w3.org/2000/svg">
<g opacity="0.5">
<path d="M10.2592 16.5533C10.0533 16.5533 9.84751 16.4775 9.68501 16.315C8.79667 15.4267 8.30917 14.2458 8.30917 13C8.30917 10.4108 10.4108 8.30917 13 8.30917C14.2458 8.30917 15.4267 8.79667 16.315 9.68501C16.4667 9.83667 16.5533 10.0425 16.5533 10.2592C16.5533 10.4758 16.4667 10.6817 16.315 10.8333L10.8333 16.315C10.6708 16.4775 10.465 16.5533 10.2592 16.5533ZM13 9.93417C11.31 9.93417 9.93417 11.31 9.93417 13C9.93417 13.5417 10.075 14.0617 10.335 14.5167L14.5167 10.335C14.0617 10.075 13.5417 9.93417 13 9.93417Z" fill="#292D32"/>
<path d="M6.06668 20.0525C5.88251 20.0525 5.68751 19.9875 5.53585 19.8575C4.37668 18.8717 3.33668 17.6583 2.44835 16.25C1.30001 14.4625 1.30001 11.5483 2.44835 9.75C5.09168 5.61167 8.93751 3.22833 13 3.22833C15.3833 3.22833 17.7342 4.05167 19.7925 5.60083C20.15 5.87167 20.2258 6.38083 19.955 6.73833C19.6842 7.09583 19.175 7.17167 18.8175 6.90083C17.0408 5.5575 15.0258 4.85333 13 4.85333C9.50085 4.85333 6.15335 6.955 3.81335 10.6275C3.00085 11.895 3.00085 14.105 3.81335 15.3725C4.62585 16.64 5.55751 17.7342 6.58668 18.6225C6.92251 18.915 6.96585 19.4242 6.67335 19.7708C6.52168 19.955 6.29418 20.0525 6.06668 20.0525Z" fill="#292D32"/>
<path d="M13 22.7717C11.5592 22.7717 10.1508 22.4792 8.79666 21.905C8.385 21.7317 8.19 21.255 8.36333 20.8433C8.53666 20.4317 9.01333 20.2367 9.425 20.41C10.5733 20.8975 11.7758 21.1467 12.9892 21.1467C16.4883 21.1467 19.8358 19.045 22.1758 15.3725C22.9883 14.105 22.9883 11.895 22.1758 10.6275C21.84 10.0967 21.4717 9.58749 21.0817 9.11083C20.8 8.76416 20.8542 8.25499 21.2008 7.96249C21.5475 7.68083 22.0567 7.72416 22.3492 8.08166C22.7717 8.60166 23.1833 9.16499 23.5517 9.74999C24.7 11.5375 24.7 14.4517 23.5517 16.25C20.9083 20.3883 17.0625 22.7717 13 22.7717Z" fill="#292D32"/>
<path d="M13.7475 17.6258C13.3683 17.6258 13.0217 17.355 12.9458 16.965C12.8592 16.5208 13.1517 16.0983 13.5958 16.0225C14.7875 15.8058 15.7842 14.8092 16.0008 13.6175C16.0875 13.1733 16.51 12.8917 16.9542 12.9675C17.3983 13.0542 17.6908 13.4767 17.6042 13.9208C17.2575 15.795 15.7625 17.2792 13.8992 17.6258C13.845 17.615 13.8017 17.6258 13.7475 17.6258Z" fill="#292D32"/>
<path d="M2.16666 24.6458C1.96083 24.6458 1.755 24.57 1.5925 24.4075C1.27833 24.0933 1.27833 23.5733 1.5925 23.2592L9.685 15.1667C9.99916 14.8525 10.5192 14.8525 10.8333 15.1667C11.1475 15.4808 11.1475 16.0008 10.8333 16.315L2.74083 24.4075C2.57833 24.57 2.3725 24.6458 2.16666 24.6458Z" fill="#292D32"/>
<path d="M15.7408 11.0717C15.535 11.0717 15.3292 10.9958 15.1667 10.8333C14.8525 10.5192 14.8525 9.99916 15.1667 9.685L23.2592 1.5925C23.5733 1.27833 24.0933 1.27833 24.4075 1.5925C24.7217 1.90666 24.7217 2.42666 24.4075 2.74083L16.315 10.8333C16.1525 10.9958 15.9467 11.0717 15.7408 11.0717Z" fill="#292D32"/>
</g>
</svg>
